<svg viewBox="0 0 478 539" xmlns="http://www.w3.org/2000/svg">
  <g fill="none" fill-rule="evenodd">
    <path d="M450.712 131.742L253.289 17.787a27.948 27.948 0 0 0-27.948 0L28.02 131.742a27.948 27.948 0 0 0-13.973 24.197v227.948a27.948 27.948 0 0 0 13.973 24.197L225.393 522.04a27.948 27.948 0 0 0 27.948 0l197.373-113.955a27.948 27.948 0 0 0 13.973-24.197V155.939a27.948 27.948 0 0 0-13.975-24.197z" stroke="#000" stroke-width="26.34"/>
    <path d="M430.203 143.78L253.17 41.58a27.634 27.634 0 0 0-27.634 0l-177.02 102.2a27.634 27.634 0 0 0-13.81 23.882v204.463a27.634 27.634 0 0 0 13.81 23.924l177.033 102.2a27.634 27.634 0 0 0 27.634 0l177.036-102.21a27.634 27.634 0 0 0 13.809-23.925V167.662a27.634 27.634 0 0 0-13.825-23.883z" fill="#000" fill-rule="nonzero"/>
    <path d="M111.594 155.043c4.257-4.23 8.5-8.462 12.729-12.7a5524.02 5524.02 0 0 1 12.741 12.741A5501.544 5501.544 0 0 1 124.35 167.8a5905.797 5905.797 0 0 1-12.755-12.757m38.335.015c4.23-4.242 8.468-8.48 12.716-12.715a5430.92 5430.92 0 0 1 12.7 12.7 5501.544 5501.544 0 0 1-12.715 12.715 6272.087 6272.087 0 0 1-12.7-12.7m153.467-.041c4.23-4.243 8.463-8.476 12.7-12.7 4.257 4.243 8.504 8.49 12.742 12.741a8791.153 8791.153 0 0 1-12.7 12.716c-4.243-4.258-8.49-8.51-12.742-12.757m38.253.08c4.243-4.256 8.5-8.513 12.77-12.77 4.243 4.23 8.482 8.468 12.716 12.716l-12.77 12.77c-4.243-4.238-8.481-8.476-12.716-12.716M130.77 174.206a8791.61 8791.61 0 0 0 12.716-12.7 5430.92 5430.92 0 0 1 12.7 12.7 5501.544 5501.544 0 0 1-12.716 12.715 4395.59 4395.59 0 0 1-12.7-12.715m38.446.026c4.215-4.201 8.412-8.415 12.59-12.64a3195.36 3195.36 0 0 0 12.592 12.645c-4.202 4.187-8.399 8.38-12.591 12.578a8787.064 8787.064 0 0 1-12.591-12.583m115.144-.083c4.203-4.216 8.416-8.417 12.606-12.661a7912 7912 0 0 0 12.633 12.676c-4.22 4.202-8.431 8.41-12.633 12.625-4.174-4.237-8.403-8.424-12.606-12.64m38.199.028a5430.92 5430.92 0 0 1 12.7-12.7c4.242 4.23 8.48 8.468 12.715 12.716a8791.103 8791.103 0 0 1-12.7 12.715c-4.229-4.26-8.486-8.489-12.715-12.73M111.594 193.38l12.755-12.755c4.243 4.243 8.476 8.481 12.7 12.715a5466.9 5466.9 0 0 1-12.742 12.742c-4.24-4.23-8.478-8.465-12.713-12.703m38.324-.013c4.243-4.229 8.485-8.462 12.728-12.7 4.243 4.23 8.476 8.463 12.7 12.7a5501.524 5501.524 0 0 1-12.715 12.716c-4.241-4.23-8.48-8.47-12.713-12.716m38.378-.07c4.187-4.201 8.38-8.398 12.578-12.59 4.229 4.228 8.452 8.457 12.67 12.686-4.187 4.188-8.38 8.376-12.577 12.565a7278.593 7278.593 0 0 1-12.671-12.66m76.945-.001c4.188-4.201 8.376-8.398 12.565-12.59a5418.65 5418.65 0 0 1 12.62 12.619c-4.217 4.174-8.391 8.39-12.607 12.565-4.164-4.216-8.39-8.39-12.578-12.594m38.157.042a5466.9 5466.9 0 0 1 12.742-12.742c4.243 4.23 8.481 8.468 12.715 12.716-4.243 4.256-8.49 8.508-12.741 12.754-4.23-4.255-8.487-8.484-12.716-12.728m38.316 0c4.229-4.243 8.462-8.477 12.7-12.7 4.243 4.229 8.481 8.467 12.715 12.715a8791.61 8791.61 0 0 1-12.7 12.716c-4.223-4.258-8.478-8.487-12.715-12.731M226.59 194.64l12.565-12.566a376.686 376.686 0 0 1 12.963 12.565 397.122 397.122 0 0 1-12.963 12.55c-4.189-4.188-8.377-8.371-12.565-12.55m-95.778 17.901l12.7-12.62c4.187 4.215 8.38 8.417 12.578 12.607-4.202 4.215-8.404 8.426-12.607 12.632a8702.135 8702.135 0 0 1-12.671-12.62m76.657-.079c4.187-4.204 8.375-8.376 12.565-12.579 4.187 4.188 8.37 8.376 12.55 12.565-4.175 4.188-8.376 8.375-12.55 12.565-4.188-4.18-8.376-8.364-12.565-12.552m38.625.001c4.156-4.217 8.375-8.363 12.536-12.579 4.297 4.12 8.403 8.404 12.645 12.578-4.216 4.175-8.403 8.404-12.619 12.591-4.174-4.216-8.38-8.388-12.562-12.59m76.656.012c4.175-4.216 8.363-8.403 12.537-12.62 4.243 4.202 8.472 8.408 12.687 12.62a5137.314 5137.314 0 0 0-12.7 12.62c-4.161-4.23-8.367-8.404-12.523-12.62M149.972 231.62a3929.21 3929.21 0 0 1 12.607-12.591 4152.44 4152.44 0 0 0 12.645 12.674c-4.187 4.2-8.38 8.394-12.578 12.578a5822.963 5822.963 0 0 1-12.674-12.662m76.644-.029a5347.46 5347.46 0 0 1 12.537-12.535 400.42 400.42 0 0 1 12.962 12.549 347.68 347.68 0 0 1-12.947 12.536c-4.189-4.185-8.373-8.369-12.552-12.55m76.974.03a4069.27 4069.27 0 0 1 12.537-12.524 4079.8 4079.8 0 0 0 12.578 12.523c-4.203 4.157-8.39 8.35-12.578 12.51-4.162-4.19-8.362-8.335-12.537-12.51M169.148 250.78a4096.2 4096.2 0 0 1 12.578-12.565c4.174 4.174 8.348 8.352 12.523 12.536-4.173 4.188-8.356 8.38-12.549 12.578-4.175-4.187-8.36-8.37-12.552-12.55m115.24.001c4.188-4.188 8.38-8.376 12.578-12.565 4.188 4.174 8.367 8.362 12.537 12.565-4.174 4.187-8.353 8.376-12.537 12.565-4.174-4.203-8.39-8.375-12.578-12.565m-134.382 19.134c4.187-4.201 8.38-8.39 12.578-12.565 4.173 4.188 8.352 8.376 12.536 12.565a14830.13 14830.13 0 0 1-12.536 12.565c-4.207-4.189-8.4-8.377-12.578-12.565m38.29 0c4.187-4.187 8.375-8.37 12.565-12.549 4.173 4.187 8.35 8.37 12.528 12.55-4.156 4.187-8.33 8.37-12.523 12.549-4.193-4.188-8.383-8.37-12.57-12.55m76.929 0c4.188-4.216 8.417-8.39 12.607-12.606 4.203 4.187 8.39 8.416 12.59 12.606a3929.23 3929.23 0 0 0-12.59 12.607c-4.177-4.216-8.416-8.39-12.607-12.607m37.228 0c4.296-4.036 8.13-8.621 12.741-12.318 3.97 4.258 8.375 8.102 12.401 12.318-4.023 4.188-8.361 8.053-12.36 12.277-4.693-3.572-8.442-8.266-12.782-12.277m-133.305 19.135l12.55-12.55c4.187 4.203 8.374 8.375 12.549 12.578a7773.364 7773.364 0 0 1-12.523 12.537c-4.188-4.19-8.38-8.378-12.576-12.565m115.253 0c4.175-4.188 8.39-8.362 12.565-12.565 4.188 4.187 8.37 8.376 12.55 12.565-4.203 4.174-8.336 8.416-12.578 12.536-4.175-4.187-8.362-8.349-12.537-12.536M149.972 308.21c4.215-4.23 8.44-8.45 12.674-12.662 4.202 4.187 8.394 8.38 12.578 12.578A17468.1 17468.1 0 0 1 162.58 320.8a3086.58 3086.58 0 0 1-12.607-12.59m76.589.028c4.201-4.202 8.403-8.399 12.606-12.591a342.506 342.506 0 0 1 13.002 12.565 339.154 339.154 0 0 1-13.017 12.632 21583.71 21583.71 0 0 1-12.591-12.606m77.028-.016c4.175-4.187 8.375-8.349 12.537-12.523 4.201 4.173 8.398 8.343 12.59 12.51a8612.704 8612.704 0 0 1-12.59 12.523 8536.458 8536.458 0 0 0-12.537-12.51m-172.791 19.067c4.229-4.201 8.458-8.408 12.687-12.62 4.201 4.202 8.403 8.413 12.606 12.633a2620.501 2620.501 0 0 0-12.58 12.62c-4.242-4.204-8.471-8.443-12.713-12.633m76.602.081c4.216-4.216 8.426-8.422 12.633-12.62 4.215 4.201 8.43 8.408 12.645 12.62-4.201 4.215-8.407 8.43-12.62 12.645a3227.321 3227.321 0 0 1-12.658-12.646m38.609.001c4.217-4.23 8.459-8.433 12.662-12.662 4.216 4.203 8.432 8.432 12.66 12.62a8762.837 8762.837 0 0 0-12.673 12.7c-4.217-4.214-8.433-8.433-12.648-12.659m76.727-.013c4.156-4.216 8.375-8.416 12.536-12.645 4.23 4.215 8.468 8.43 12.716 12.645a8733.73 8733.73 0 0 1-12.7 12.633c-4.177-4.216-8.383-8.417-12.552-12.633m-96.231 17.834c4.215-4.202 8.43-8.413 12.646-12.633 4.463 4.091 8.8 8.313 13.071 12.62a381.985 381.985 0 0 1-13.056 12.686c-4.229-4.229-8.449-8.453-12.66-12.674m-114.914 1.273l12.716-12.715c4.257 4.243 8.504 8.49 12.741 12.741a8791.61 8791.61 0 0 1-12.7 12.716c-4.256-4.255-8.509-8.502-12.757-12.742m38.324-.012c4.243-4.23 8.481-8.463 12.715-12.7 4.243 4.228 8.482 8.467 12.716 12.715a5487.986 5487.986 0 0 1-12.7 12.7 7340.817 7340.817 0 0 1-12.731-12.716m38.294.068c4.258-4.23 8.5-8.487 12.755-12.716 4.215 4.215 8.436 8.43 12.661 12.646-4.243 4.27-8.486 8.527-12.729 12.77-4.229-4.227-8.458-8.46-12.687-12.7m76.933.015c4.229-4.242 8.487-8.458 12.687-12.7 4.229 4.23 8.462 8.45 12.7 12.661-4.243 4.243-8.481 8.486-12.716 12.729-4.227-4.23-8.45-8.46-12.671-12.69m38.253-.042c4.23-4.241 8.487-8.486 12.716-12.728a8043.34 8043.34 0 0 0 12.741 12.755l-12.715 12.715c-4.252-4.242-8.499-8.49-12.742-12.741m38.316-.001c4.229-4.241 8.486-8.486 12.715-12.728 4.23 4.243 8.463 8.482 12.7 12.716a5501.425 5501.425 0 0 1-12.715 12.715 9757.8 9757.8 0 0 1-12.7-12.702M130.757 365.61a8792.17 8792.17 0 0 0 12.716-12.7c4.243 4.229 8.481 8.467 12.715 12.715a5488.363 5488.363 0 0 1-12.7 12.7 7340.817 7340.817 0 0 1-12.73-12.715m38.349.013a2709.91 2709.91 0 0 1 12.687-12.687 3231.82 3231.82 0 0 1 12.7 12.687c-4.23 4.229-8.458 8.486-12.687 12.715-4.242-4.229-8.471-8.484-12.7-12.715m115.143.028c4.23-4.243 8.473-8.485 12.73-12.728 4.242 4.256 8.49 8.5 12.74 12.728a4213.021 4213.021 0 0 0-12.74 12.755c-4.257-4.241-8.5-8.493-12.73-12.755m38.309 0c4.229-4.242 8.486-8.486 12.715-12.728 4.23 4.243 8.462 8.481 12.7 12.715a5501.425 5501.425 0 0 1-12.715 12.716 9757.538 9757.538 0 0 1-12.7-12.703m-210.923 19.08c4.229-4.243 8.467-8.481 12.715-12.715l12.716 12.715-12.716 12.716a3385.51 3385.51 0 0 1-12.715-12.716m38.282.039a8458.08 8458.08 0 0 0 12.715-12.7c4.243 4.23 8.482 8.468 12.716 12.716a5487.986 5487.986 0 0 1-12.7 12.7 7340.464 7340.464 0 0 1-12.731-12.716m153.48.042c4.243-4.257 8.49-8.509 12.742-12.755 4.229 4.243 8.462 8.481 12.7 12.716-4.243 4.256-8.49 8.504-12.742 12.741a5165.995 5165.995 0 0 1-12.7-12.702m38.253-.081c4.23-4.243 8.468-8.481 12.716-12.715l12.77 12.77a5501.425 5501.425 0 0 1-12.715 12.715 3414.54 3414.54 0 0 1-12.77-12.77" fill="#FFF" fill-rule="nonzero"/>
  </g>
</svg>
