<svg width="511" height="487" xmlns="http://www.w3.org/2000/svg"><path d="M129.494 479.626C60.564 438.188 17.731 377.625 3.188 301.123c-4.184-22.113-4.184-69.927 0-92.04C22.91 104.49 103.795 22.61 206.593 2.888c20.52-3.785 79.29-3.785 98.615.2 33.867 7.172 70.724 23.11 99.212 43.031 20.122 14.145 50.403 45.025 63.95 65.544 19.723 29.684 29.884 52.993 37.653 86.861 5.18 21.915 5.778 86.064.996 108.377-11.554 55.184-44.028 110.369-84.669 144.436-13.746 11.554-48.61 34.863-51.997 34.863-1.992 0-8.367-14.344-22.711-50.403l-11.754-29.285-80.685.398-80.685.598-7.37 18.926c-4.185 10.36-10.958 27.89-15.142 38.649-4.183 10.957-8.566 20.121-9.562 20.52-1.196.398-6.973-2.39-12.95-5.977zm-3.984-106.982c10.36-26.297 109.173-274.328 126.904-318.157 2.39-5.977 6.574-1.594 12.352 12.152 3.387 8.168 6.176 15.34 6.176 15.938 0 1.195 21.914 56.579 93.235 235.879 21.516 53.79 39.845 98.017 40.84 98.017 2.59 0 16.935-15.34 28.091-29.884 16.735-21.715 29.286-48.41 37.255-79.09 3.984-15.141 4.781-22.313 4.582-52.396 0-39.645-3.188-56.579-16.536-87.657-18.727-43.43-61.16-88.654-102.2-108.975-65.345-32.075-133.877-32.274-199.82-.398-18.926 9.164-34.664 20.52-54.587 40.243-45.621 44.625-66.141 93.235-66.141 156.986 0 60.564 19.125 109.174 59.766 151.807 13.149 13.747 9.563 17.532 30.083-34.465zm180.694-29.086c3.586-.997 3.984-1.993 2.59-5.38-.996-2.39-11.754-29.883-23.907-61.16-12.152-31.08-23.906-60.165-25.899-64.748-3.586-7.968-3.785-7.968-5.578-2.988-.996 2.79-8.766 22.114-17.332 42.833-29.286 72.517-35.262 89.251-32.473 91.044 2.988 1.793 95.825 2.192 102.599.399z" fill="#000" fill-rule="nonzero"/></svg>
