<?xml version="1.0" encoding="UTF-8" standalone="yes"?>
<svg xmlns="http://www.w3.org/2000/svg" xmlns:xlink="http://www.w3.org/1999/xlink" width="512px" height="512px" viewBox="0 0 384 384" version="1.1">
  <g id="surface1">
    <path style=" stroke:none;fill-rule:nonzero;fill:rgb(0%,0%,0%);fill-opacity:1;" d="M 156.785156 165.335938 L 17.246094 165.335938 L 1.097656 217.824219 L 140.640625 217.824219 Z M 156.785156 165.335938 "/>
    <path style=" stroke:none;fill-rule:nonzero;fill:rgb(0%,0%,0%);fill-opacity:1;" d="M 378.75 97.914062 C 371.070312 82.980469 355.28125 77.453125 343.332031 77.453125 L 82.605469 77.453125 L 64.96875 134.613281 L 298.613281 134.613281 L 263.421875 249.007812 L 27.914062 249.007812 L 10.273438 306.167969 L 260.691406 306.167969 C 285.15625 306.167969 291.699219 301.886719 309.195312 291.644531 C 326.691406 281.402344 340.34375 263.480469 347.746094 242.144531 C 355.148438 220.808594 373.203125 160.640625 378.75 140.585938 C 384.300781 120.53125 386.429688 112.851562 378.75 97.914062 Z M 378.75 97.914062 "/>
  </g>
</svg>