<?xml version="1.0" encoding="UTF-8" standalone="yes"?>
<svg xmlns="http://www.w3.org/2000/svg" xmlns:xlink="http://www.w3.org/1999/xlink" width="512px" height="512px" viewBox="0 0 384 384" version="1.1">
  <g id="surface1">
    <path style=" stroke:none;fill-rule:nonzero;fill:rgb(0%,0%,0%);fill-opacity:1;" d="M 253.429688 82.828125 L 261.265625 10.0625 L 233.164062 7.035156 L 225.570312 77.488281 C 218.195312 76.113281 210.609375 74.710938 202.96875 73.304688 L 210.546875 3.023438 L 182.4375 0 L 175.089844 68.203125 C 144.859375 62.710938 114.617188 57.289062 84.363281 51.9375 L 46.1875 95.078125 C 46.1875 95.078125 200.402344 119.378906 231.144531 125.824219 C 261.894531 132.269531 283.695312 171.929688 260.894531 210.617188 C 238.09375 249.300781 197.28125 285.453125 123.042969 280.539062 L 193.957031 140.203125 L 127.015625 127.808594 L 36.761719 298.386719 C 36.761719 298.386719 71.960938 308.917969 129.304688 310.046875 L 122.363281 374.417969 L 150.46875 377.449219 L 157.753906 309.804688 C 165.226562 309.53125 172.957031 309.09375 180.953125 308.457031 L 173.089844 381.453125 L 201.191406 384.484375 L 209.753906 305.019531 C 298.609375 288.746094 343.824219 207.96875 346.683594 169.953125 C 349.613281 130.898438 316.4375 95.742188 253.429688 82.828125 Z M 253.429688 82.828125 "/>
  </g>
</svg>