<?xml version="1.0" encoding="UTF-8" standalone="yes"?>
<svg xmlns="http://www.w3.org/2000/svg" xmlns:xlink="http://www.w3.org/1999/xlink" width="512px" height="512px" viewBox="0 0 384 384" version="1.1">
  <g id="surface1">
    <path style=" stroke:none;fill-rule:evenodd;fill:rgb(100%,100%,100%);fill-opacity:1;" d="M 365.566406 192.769531 C 365.566406 97.332031 288.203125 19.96875 192.769531 19.96875 C 97.332031 19.96875 19.96875 97.332031 19.96875 192.769531 C 19.96875 288.203125 97.332031 365.566406 192.769531 365.566406 C 288.203125 365.566406 365.566406 288.203125 365.566406 192.769531 Z M 365.566406 192.769531 "/>
    <path style="fill:none;stroke-width:24;stroke-linecap:butt;stroke-linejoin:miter;stroke:rgb(0%,0%,0%);stroke-opacity:1;stroke-miterlimit:4;" d="M 226.000468 125.500997 C 226.000468 69.994609 181.004842 24.998983 125.500997 24.998983 C 69.994609 24.998983 24.998983 69.994609 24.998983 125.500997 C 24.998983 181.004842 69.994609 226.000468 125.500997 226.000468 C 181.004842 226.000468 226.000468 181.004842 226.000468 125.500997 Z M 226.000468 125.500997 " transform="matrix(1.536,0,0,1.536,0,0)"/>
  </g>
</svg>