<svg viewBox="0 0 512 513" xmlns="http://www.w3.org/2000/svg">
  <path d="M462.8 256.018c0-114.206-92.581-206.788-206.782-206.788-114.207 0-206.788 92.581-206.788 206.788 0 114.2 92.582 206.781 206.788 206.781 114.2 0 206.781-92.581 206.781-206.78zm49.214 0c0 141.38-114.615 255.996-255.996 255.996C114.631 512.014.014 397.4.014 256.018.014 114.63 114.63.014 256.018.014c141.382 0 255.996 114.617 255.996 256.004zm-.697 0c0 140.998-114.301 255.299-255.3 255.299-141.004 0-255.305-114.3-255.305-255.3C.712 115.012 115.013.711 256.018.711c141 0 255.299 114.302 255.299 255.306zm-49.216 0c0-113.823-92.265-206.09-206.083-206.09-113.824 0-206.09 92.265-206.09 206.088 0 113.82 92.266 206.085 206.088 206.085 113.819 0 206.085-92.266 206.085-206.083z"/>
</svg>
