<?xml version="1.0" encoding="UTF-8" standalone="yes"?>
<svg xmlns="http://www.w3.org/2000/svg" xmlns:xlink="http://www.w3.org/1999/xlink" width="512px" height="512px" viewBox="0 0 384 384" version="1.1">
  <g id="surface1">
    <path style=" stroke:none;fill-rule:nonzero;fill:rgb(0%,0%,0%);fill-opacity:1;" d="M 232.28125 229.71875 C 232.28125 224.089844 227.714844 219.523438 222.085938 219.523438 C 216.457031 219.523438 211.890625 224.089844 211.890625 229.71875 C 211.890625 235.347656 216.457031 239.910156 222.085938 239.910156 C 227.714844 239.910156 232.28125 235.347656 232.28125 229.71875 Z M 232.28125 229.71875 "/>
    <path style=" stroke:none;fill-rule:nonzero;fill:rgb(0%,0%,0%);fill-opacity:1;" d="M 255.820312 208.539062 C 255.820312 202.472656 250.898438 197.554688 244.832031 197.554688 C 238.765625 197.554688 233.847656 202.472656 233.847656 208.539062 C 233.847656 214.605469 238.765625 219.523438 244.832031 219.523438 C 250.898438 219.523438 255.820312 214.605469 255.820312 208.539062 Z M 255.820312 208.539062 "/>
    <path style=" stroke:none;fill-rule:nonzero;fill:rgb(0%,0%,0%);fill-opacity:1;" d="M 276.8125 178.554688 C 276.8125 171.605469 271.179688 165.972656 264.234375 165.972656 C 257.285156 165.972656 251.652344 171.605469 251.652344 178.554688 C 251.652344 185.5 257.285156 191.132812 264.234375 191.132812 C 271.179688 191.132812 276.8125 185.5 276.8125 178.554688 Z M 276.8125 178.554688 "/>
    <path style=" stroke:none;fill-rule:nonzero;fill:rgb(0%,0%,0%);fill-opacity:1;" d="M 294.855469 137.882812 C 294.855469 127.917969 286.777344 119.839844 276.8125 119.839844 C 266.847656 119.839844 258.765625 127.917969 258.765625 137.882812 C 258.765625 147.851562 266.847656 155.929688 276.8125 155.929688 C 286.777344 155.929688 294.855469 147.851562 294.855469 137.882812 Z M 294.855469 137.882812 "/>
    <path style=" stroke:none;fill-rule:nonzero;fill:rgb(0%,0%,0%);fill-opacity:1;" d="M 303.304688 88.460938 C 303.304688 77.671875 294.558594 68.925781 283.769531 68.925781 C 272.980469 68.925781 264.234375 77.671875 264.234375 88.460938 C 264.234375 99.25 272.980469 108 283.769531 108 C 294.558594 108 303.304688 99.25 303.304688 88.460938 Z M 303.304688 88.460938 "/>
    <path style=" stroke:none;fill-rule:nonzero;fill:rgb(0%,0%,0%);fill-opacity:1;" d="M 302.460938 31.078125 C 302.460938 17.738281 291.644531 6.921875 278.304688 6.921875 C 264.960938 6.921875 254.144531 17.738281 254.144531 31.078125 C 254.144531 44.421875 264.960938 55.238281 278.304688 55.238281 C 291.644531 55.238281 302.460938 44.421875 302.460938 31.078125 Z M 302.460938 31.078125 "/>
    <path style=" stroke:none;fill-rule:nonzero;fill:rgb(0%,0%,0%);fill-opacity:1;" d="M 248.625 242.324219 C 243.933594 241.203125 239.222656 244.101562 238.101562 248.796875 C 236.984375 253.488281 239.882812 258.199219 244.574219 259.316406 C 249.269531 260.4375 253.980469 257.539062 255.097656 252.84375 C 256.214844 248.152344 253.316406 243.441406 248.625 242.324219 Z M 248.625 242.324219 "/>
    <path style=" stroke:none;fill-rule:nonzero;fill:rgb(0%,0%,0%);fill-opacity:1;" d="M 271.953125 228.523438 C 266.894531 227.320312 261.820312 230.441406 260.613281 235.5 C 259.410156 240.558594 262.53125 245.632812 267.589844 246.839844 C 272.644531 248.042969 277.722656 244.921875 278.929688 239.863281 C 280.132812 234.804688 277.011719 229.730469 271.953125 228.523438 Z M 271.953125 228.523438 "/>
    <path style=" stroke:none;fill-rule:nonzero;fill:rgb(0%,0%,0%);fill-opacity:1;" d="M 294.394531 206.054688 C 288.601562 204.675781 282.789062 208.25 281.410156 214.042969 C 280.03125 219.832031 283.605469 225.644531 289.398438 227.027344 C 295.1875 228.40625 301 224.832031 302.382812 219.039062 C 303.761719 213.25 300.183594 207.433594 294.394531 206.054688 Z M 294.394531 206.054688 "/>
    <path style=" stroke:none;fill-rule:nonzero;fill:rgb(0%,0%,0%);fill-opacity:1;" d="M 314.042969 170.089844 C 305.734375 168.113281 297.394531 173.242188 295.414062 181.550781 C 293.4375 189.855469 298.566406 198.195312 306.871094 200.175781 C 315.179688 202.15625 323.519531 197.027344 325.5 188.71875 C 327.480469 180.410156 322.347656 172.070312 314.042969 170.089844 Z M 314.042969 170.089844 "/>
    <path style=" stroke:none;fill-rule:nonzero;fill:rgb(0%,0%,0%);fill-opacity:1;" d="M 329.957031 129.035156 C 320.964844 126.890625 311.933594 132.445312 309.789062 141.441406 C 307.648438 150.433594 313.203125 159.464844 322.195312 161.605469 C 331.191406 163.75 340.21875 158.195312 342.363281 149.203125 C 344.507812 140.207031 338.953125 131.179688 329.957031 129.035156 Z M 329.957031 129.035156 "/>
    <path style=" stroke:none;fill-rule:nonzero;fill:rgb(0%,0%,0%);fill-opacity:1;" d="M 337.71875 76.261719 C 326.59375 73.609375 315.429688 80.476562 312.777344 91.601562 C 310.128906 102.722656 316.996094 113.890625 328.117188 116.539062 C 339.242188 119.191406 350.40625 112.320312 353.058594 101.199219 C 355.707031 90.074219 348.839844 78.910156 337.71875 76.261719 Z M 337.71875 76.261719 "/>
    <path style=" stroke:none;fill-rule:nonzero;fill:rgb(0%,0%,0%);fill-opacity:1;" d="M 270.660156 265.9375 C 266.980469 264.179688 262.578125 265.738281 260.820312 269.417969 C 259.0625 273.09375 260.621094 277.5 264.300781 279.257812 C 267.976562 281.011719 272.382812 279.453125 274.136719 275.777344 C 275.894531 272.097656 274.335938 267.691406 270.660156 265.9375 Z M 270.660156 265.9375 "/>
    <path style=" stroke:none;fill-rule:nonzero;fill:rgb(0%,0%,0%);fill-opacity:1;" d="M 292.375 258.679688 C 288.414062 256.785156 283.664062 258.464844 281.773438 262.429688 C 279.878906 266.394531 281.558594 271.140625 285.523438 273.035156 C 289.484375 274.925781 294.234375 273.246094 296.128906 269.285156 C 298.019531 265.320312 296.339844 260.570312 292.375 258.679688 Z M 292.375 258.679688 "/>
    <path style=" stroke:none;fill-rule:nonzero;fill:rgb(0%,0%,0%);fill-opacity:1;" d="M 314.902344 244.105469 C 310.363281 241.9375 304.929688 243.859375 302.761719 248.398438 C 300.59375 252.9375 302.515625 258.371094 307.054688 260.539062 C 311.59375 262.707031 317.027344 260.785156 319.195312 256.246094 C 321.363281 251.707031 319.441406 246.273438 314.902344 244.105469 Z M 314.902344 244.105469 "/>
    <path style=" stroke:none;fill-rule:nonzero;fill:rgb(0%,0%,0%);fill-opacity:1;" d="M 337.511719 217.886719 C 331 214.777344 323.203125 217.535156 320.09375 224.046875 C 316.984375 230.554688 319.742188 238.355469 326.253906 241.460938 C 332.761719 244.570312 340.5625 241.8125 343.667969 235.304688 C 346.777344 228.792969 344.019531 220.996094 337.511719 217.886719 Z M 337.511719 217.886719 "/>
    <path style=" stroke:none;fill-rule:nonzero;fill:rgb(0%,0%,0%);fill-opacity:1;" d="M 357.9375 186.792969 C 350.890625 183.425781 342.445312 186.414062 339.082031 193.460938 C 335.714844 200.511719 338.699219 208.953125 345.75 212.320312 C 352.796875 215.683594 361.242188 212.699219 364.605469 205.648438 C 367.972656 198.601562 364.988281 190.160156 357.9375 186.792969 Z M 357.9375 186.792969 "/>
    <path style=" stroke:none;fill-rule:nonzero;fill:rgb(0%,0%,0%);fill-opacity:1;" d="M 373.707031 144.578125 C 364.992188 140.414062 354.550781 144.109375 350.390625 152.824219 C 346.226562 161.539062 349.917969 171.980469 358.636719 176.144531 C 367.351562 180.304688 377.792969 176.613281 381.957031 167.898438 C 386.117188 159.179688 382.425781 148.742188 373.707031 144.578125 Z M 373.707031 144.578125 "/>
    <path style=" stroke:none;fill-rule:nonzero;fill:rgb(0%,0%,0%);fill-opacity:1;" d="M 233.121094 151.097656 C 230.308594 146.21875 224.074219 144.550781 219.195312 147.363281 C 214.320312 150.179688 212.652344 156.414062 215.464844 161.289062 C 218.28125 166.164062 224.515625 167.835938 229.390625 165.019531 C 234.265625 162.207031 235.9375 155.972656 233.121094 151.097656 Z M 233.121094 151.097656 "/>
    <path style=" stroke:none;fill-rule:nonzero;fill:rgb(0%,0%,0%);fill-opacity:1;" d="M 204.09375 141.589844 C 201.058594 136.335938 194.339844 134.535156 189.085938 137.570312 C 183.832031 140.605469 182.03125 147.324219 185.066406 152.578125 C 188.097656 157.832031 194.816406 159.632812 200.070312 156.597656 C 205.324219 153.5625 207.125 146.84375 204.09375 141.589844 Z M 204.09375 141.589844 "/>
    <path style=" stroke:none;fill-rule:nonzero;fill:rgb(0%,0%,0%);fill-opacity:1;" d="M 169.804688 138.988281 C 166.332031 132.972656 158.636719 130.910156 152.621094 134.386719 C 146.605469 137.859375 144.542969 145.550781 148.019531 151.566406 C 151.492188 157.585938 159.183594 159.644531 165.199219 156.171875 C 171.21875 152.699219 173.277344 145.003906 169.804688 138.988281 Z M 169.804688 138.988281 "/>
    <path style=" stroke:none;fill-rule:nonzero;fill:rgb(0%,0%,0%);fill-opacity:1;" d="M 133.03125 145.695312 C 128.046875 137.066406 117.011719 134.109375 108.378906 139.09375 C 99.75 144.074219 96.792969 155.109375 101.777344 163.742188 C 106.757812 172.371094 117.792969 175.328125 126.425781 170.347656 C 135.054688 165.363281 138.011719 154.328125 133.03125 145.695312 Z M 133.03125 145.695312 "/>
    <path style=" stroke:none;fill-rule:nonzero;fill:rgb(0%,0%,0%);fill-opacity:1;" d="M 88.042969 163.636719 C 82.648438 154.292969 70.699219 151.089844 61.355469 156.484375 C 52.011719 161.878906 48.808594 173.828125 54.203125 183.171875 C 59.601562 192.515625 71.546875 195.71875 80.894531 190.324219 C 90.238281 184.929688 93.4375 172.980469 88.042969 163.636719 Z M 88.042969 163.636719 "/>
    <path style=" stroke:none;fill-rule:nonzero;fill:rgb(0%,0%,0%);fill-opacity:1;" d="M 45.082031 194.75 C 38.414062 183.195312 23.636719 179.234375 12.082031 185.90625 C 0.527344 192.578125 -3.429688 207.351562 3.242188 218.90625 C 9.910156 230.460938 24.6875 234.421875 36.242188 227.75 C 47.796875 221.078125 51.753906 206.304688 45.082031 194.75 Z M 45.082031 194.75 "/>
    <path style=" stroke:none;fill-rule:nonzero;fill:rgb(0%,0%,0%);fill-opacity:1;" d="M 238.703125 121.917969 C 237.324219 117.296875 232.460938 114.664062 227.835938 116.042969 C 223.210938 117.421875 220.582031 122.285156 221.960938 126.910156 C 223.335938 131.53125 228.203125 134.164062 232.824219 132.785156 C 237.449219 131.40625 240.082031 126.542969 238.703125 121.917969 Z M 238.703125 121.917969 "/>
    <path style=" stroke:none;fill-rule:nonzero;fill:rgb(0%,0%,0%);fill-opacity:1;" d="M 216.390625 108.226562 C 214.90625 103.246094 209.660156 100.410156 204.679688 101.894531 C 199.695312 103.378906 196.859375 108.621094 198.347656 113.605469 C 199.832031 118.585938 205.074219 121.421875 210.054688 119.9375 C 215.039062 118.453125 217.875 113.210938 216.390625 108.226562 Z M 216.390625 108.226562 "/>
    <path style=" stroke:none;fill-rule:nonzero;fill:rgb(0%,0%,0%);fill-opacity:1;" d="M 188.324219 99.242188 C 186.625 93.539062 180.621094 90.292969 174.914062 91.992188 C 169.210938 93.691406 165.964844 99.695312 167.664062 105.402344 C 169.363281 111.105469 175.367188 114.351562 181.074219 112.652344 C 186.777344 110.953125 190.023438 104.949219 188.324219 99.242188 Z M 188.324219 99.242188 "/>
    <path style=" stroke:none;fill-rule:nonzero;fill:rgb(0%,0%,0%);fill-opacity:1;" d="M 156.332031 97.527344 C 153.894531 89.34375 145.28125 84.6875 137.097656 87.125 C 128.914062 89.566406 124.257812 98.175781 126.695312 106.363281 C 129.136719 114.546875 137.746094 119.203125 145.929688 116.765625 C 154.117188 114.324219 158.773438 105.714844 156.332031 97.527344 Z M 156.332031 97.527344 "/>
    <path style=" stroke:none;fill-rule:nonzero;fill:rgb(0%,0%,0%);fill-opacity:1;" d="M 115.269531 103.546875 C 112.625 94.683594 103.300781 89.640625 94.441406 92.28125 C 85.578125 94.921875 80.539062 104.246094 83.179688 113.109375 C 85.820312 121.96875 95.144531 127.011719 104.003906 124.371094 C 112.867188 121.730469 117.910156 112.40625 115.269531 103.546875 Z M 115.269531 103.546875 "/>
    <path style=" stroke:none;fill-rule:nonzero;fill:rgb(0%,0%,0%);fill-opacity:1;" d="M 73.273438 120.949219 C 70.007812 109.988281 58.476562 103.753906 47.519531 107.019531 C 36.558594 110.285156 30.324219 121.816406 33.589844 132.773438 C 36.855469 143.734375 48.386719 149.96875 59.34375 146.703125 C 70.304688 143.4375 76.539062 131.90625 73.273438 120.949219 Z M 73.273438 120.949219 "/>
    <path style=" stroke:none;fill-rule:nonzero;fill:rgb(0%,0%,0%);fill-opacity:1;" d="M 246.097656 94.894531 C 245.78125 90.832031 242.230469 87.796875 238.167969 88.109375 C 234.105469 88.425781 231.066406 91.976562 231.382812 96.039062 C 231.699219 100.101562 235.246094 103.140625 239.308594 102.824219 C 243.375 102.507812 246.410156 98.960938 246.097656 94.894531 Z M 246.097656 94.894531 "/>
    <path style=" stroke:none;fill-rule:nonzero;fill:rgb(0%,0%,0%);fill-opacity:1;" d="M 230.097656 79.628906 C 229.757812 75.25 225.929688 71.976562 221.550781 72.316406 C 217.171875 72.65625 213.894531 76.480469 214.234375 80.863281 C 214.574219 85.242188 218.402344 88.515625 222.78125 88.175781 C 227.160156 87.835938 230.4375 84.007812 230.097656 79.628906 Z M 230.097656 79.628906 "/>
    <path style=" stroke:none;fill-rule:nonzero;fill:rgb(0%,0%,0%);fill-opacity:1;" d="M 208.496094 67.226562 C 208.105469 62.210938 203.722656 58.464844 198.707031 58.859375 C 193.695312 59.25 189.949219 63.632812 190.339844 68.644531 C 190.734375 73.660156 195.113281 77.40625 200.128906 77.015625 C 205.144531 76.621094 208.890625 72.238281 208.496094 67.226562 Z M 208.496094 67.226562 "/>
    <path style=" stroke:none;fill-rule:nonzero;fill:rgb(0%,0%,0%);fill-opacity:1;" d="M 182.378906 60.136719 C 181.816406 52.941406 175.527344 47.570312 168.335938 48.132812 C 161.144531 48.695312 155.769531 54.980469 156.332031 62.171875 C 156.894531 69.367188 163.183594 74.738281 170.375 74.175781 C 177.566406 73.613281 182.941406 67.328125 182.378906 60.136719 Z M 182.378906 60.136719 "/>
    <path style=" stroke:none;fill-rule:nonzero;fill:rgb(0%,0%,0%);fill-opacity:1;" d="M 147.394531 57.820312 C 146.785156 50.03125 139.976562 44.210938 132.191406 44.820312 C 124.402344 45.429688 118.582031 52.238281 119.191406 60.027344 C 119.800781 67.8125 126.609375 73.632812 134.398438 73.023438 C 142.183594 72.414062 148.003906 65.605469 147.394531 57.820312 Z M 147.394531 57.820312 "/>
    <path style=" stroke:none;fill-rule:nonzero;fill:rgb(0%,0%,0%);fill-opacity:1;" d="M 109.621094 64.742188 C 108.867188 55.113281 100.449219 47.917969 90.820312 48.671875 C 81.191406 49.421875 73.996094 57.839844 74.746094 67.472656 C 75.5 77.101562 83.917969 84.296875 93.546875 83.542969 C 103.179688 82.789062 110.375 74.371094 109.621094 64.742188 Z M 109.621094 64.742188 "/>
    <path style=" stroke:none;fill-rule:nonzero;fill:rgb(0%,0%,0%);fill-opacity:1;" d="M 164.980469 184.574219 C 160.105469 181.757812 153.871094 183.429688 151.054688 188.304688 C 148.238281 193.179688 149.910156 199.414062 154.785156 202.226562 C 159.660156 205.042969 165.894531 203.371094 168.710938 198.496094 C 171.527344 193.621094 169.855469 187.386719 164.980469 184.574219 Z M 164.980469 184.574219 "/>
    <path style=" stroke:none;fill-rule:nonzero;fill:rgb(0%,0%,0%);fill-opacity:1;" d="M 172.34375 214.175781 C 167.089844 211.140625 160.371094 212.941406 157.335938 218.195312 C 154.304688 223.449219 156.105469 230.167969 161.359375 233.203125 C 166.613281 236.238281 173.332031 234.4375 176.363281 229.183594 C 179.398438 223.929688 177.597656 217.210938 172.34375 214.175781 Z M 172.34375 214.175781 "/>
    <path style=" stroke:none;fill-rule:nonzero;fill:rgb(0%,0%,0%);fill-opacity:1;" d="M 189.40625 244.589844 C 183.390625 241.117188 175.699219 243.175781 172.226562 249.191406 C 168.75 255.210938 170.8125 262.902344 176.828125 266.375 C 182.84375 269.851562 190.539062 267.789062 194.011719 261.773438 C 197.484375 255.753906 195.425781 248.0625 189.40625 244.589844 Z M 189.40625 244.589844 "/>
    <path style=" stroke:none;fill-rule:nonzero;fill:rgb(0%,0%,0%);fill-opacity:1;" d="M 221.074219 271.085938 C 212.441406 266.101562 201.40625 269.058594 196.425781 277.691406 C 191.441406 286.320312 194.398438 297.355469 203.027344 302.339844 C 211.660156 307.324219 222.695312 304.367188 227.679688 295.734375 C 232.660156 287.105469 229.703125 276.066406 221.074219 271.085938 Z M 221.074219 271.085938 "/>
    <path style=" stroke:none;fill-rule:nonzero;fill:rgb(0%,0%,0%);fill-opacity:1;" d="M 261.136719 300.53125 C 251.792969 295.136719 239.84375 298.335938 234.449219 307.683594 C 229.054688 317.027344 232.257812 328.972656 241.601562 334.371094 C 250.945312 339.765625 262.894531 336.5625 268.289062 327.21875 C 273.683594 317.875 270.480469 305.925781 261.136719 300.53125 Z M 261.136719 300.53125 "/>
    <path style=" stroke:none;fill-rule:nonzero;fill:rgb(0%,0%,0%);fill-opacity:1;" d="M 315.875 320.488281 C 304.320312 313.816406 289.546875 317.773438 282.875 329.328125 C 276.203125 340.882812 280.164062 355.660156 291.71875 362.332031 C 303.273438 369 318.046875 365.042969 324.71875 353.488281 C 331.390625 341.933594 327.429688 327.160156 315.875 320.488281 Z M 315.875 320.488281 "/>
    <path style=" stroke:none;fill-rule:nonzero;fill:rgb(0%,0%,0%);fill-opacity:1;" d="M 135.335938 197.726562 C 131.828125 194.410156 126.300781 194.566406 122.984375 198.070312 C 119.671875 201.574219 119.824219 207.105469 123.328125 210.417969 C 126.835938 213.734375 132.363281 213.582031 135.679688 210.074219 C 138.996094 206.570312 138.839844 201.042969 135.335938 197.726562 Z M 135.335938 197.726562 "/>
    <path style=" stroke:none;fill-rule:nonzero;fill:rgb(0%,0%,0%);fill-opacity:1;" d="M 135.589844 223.867188 C 131.8125 220.296875 125.855469 220.460938 122.285156 224.238281 C 118.710938 228.015625 118.878906 233.976562 122.65625 237.546875 C 126.433594 241.121094 132.390625 240.953125 135.960938 237.175781 C 139.535156 233.398438 139.367188 227.441406 135.589844 223.867188 Z M 135.589844 223.867188 "/>
    <path style=" stroke:none;fill-rule:nonzero;fill:rgb(0%,0%,0%);fill-opacity:1;" d="M 143.777344 252.609375 C 139.449219 248.519531 132.628906 248.710938 128.539062 253.035156 C 124.449219 257.359375 124.636719 264.183594 128.964844 268.273438 C 133.289062 272.363281 140.109375 272.175781 144.199219 267.847656 C 148.292969 263.523438 148.101562 256.703125 143.777344 252.609375 Z M 143.777344 252.609375 "/>
    <path style=" stroke:none;fill-rule:nonzero;fill:rgb(0%,0%,0%);fill-opacity:1;" d="M 164.910156 280.992188 C 158.703125 275.125 148.917969 275.394531 143.050781 281.601562 C 137.179688 287.804688 137.453125 297.59375 143.660156 303.460938 C 149.863281 309.328125 159.648438 309.054688 165.519531 302.851562 C 171.386719 296.644531 171.113281 286.859375 164.910156 280.992188 Z M 164.910156 280.992188 "/>
    <path style=" stroke:none;fill-rule:nonzero;fill:rgb(0%,0%,0%);fill-opacity:1;" d="M 192.460938 313.496094 C 185.742188 307.144531 175.144531 307.4375 168.792969 314.15625 C 162.4375 320.875 162.734375 331.46875 169.453125 337.824219 C 176.171875 344.175781 186.765625 343.882812 193.121094 337.164062 C 199.472656 330.445312 199.179688 319.847656 192.460938 313.496094 Z M 192.460938 313.496094 "/>
    <path style=" stroke:none;fill-rule:nonzero;fill:rgb(0%,0%,0%);fill-opacity:1;" d="M 234.128906 341.007812 C 225.820312 333.152344 212.714844 333.515625 204.859375 341.824219 C 197.003906 350.132812 197.367188 363.234375 205.675781 371.09375 C 213.984375 378.949219 227.085938 378.582031 234.945312 370.277344 C 242.800781 361.96875 242.433594 348.863281 234.128906 341.007812 Z M 234.128906 341.007812 "/>
    <path style=" stroke:none;fill-rule:nonzero;fill:rgb(0%,0%,0%);fill-opacity:1;" d="M 106.152344 207.089844 C 103.847656 203.730469 99.253906 202.878906 95.890625 205.183594 C 92.53125 207.492188 91.679688 212.085938 93.984375 215.445312 C 96.292969 218.804688 100.886719 219.65625 104.246094 217.351562 C 107.605469 215.042969 108.460938 210.449219 106.152344 207.089844 Z M 106.152344 207.089844 "/>
    <path style=" stroke:none;fill-rule:nonzero;fill:rgb(0%,0%,0%);fill-opacity:1;" d="M 101.730469 228.726562 C 99.242188 225.105469 94.292969 224.1875 90.671875 226.675781 C 87.050781 229.160156 86.132812 234.109375 88.617188 237.730469 C 91.105469 241.351562 96.054688 242.269531 99.675781 239.785156 C 103.296875 237.300781 104.214844 232.347656 101.730469 228.726562 Z M 101.730469 228.726562 "/>
    <path style=" stroke:none;fill-rule:nonzero;fill:rgb(0%,0%,0%);fill-opacity:1;" d="M 103.390625 253.917969 C 100.542969 249.773438 94.875 248.71875 90.730469 251.566406 C 86.585938 254.414062 85.53125 260.082031 88.378906 264.226562 C 91.226562 268.375 96.894531 269.425781 101.039062 266.578125 C 105.183594 263.734375 106.238281 258.0625 103.390625 253.917969 Z M 103.390625 253.917969 "/>
    <path style=" stroke:none;fill-rule:nonzero;fill:rgb(0%,0%,0%);fill-opacity:1;" d="M 115.8125 281.105469 C 111.730469 275.15625 103.597656 273.644531 97.652344 277.730469 C 91.703125 281.8125 90.195312 289.945312 94.277344 295.894531 C 98.363281 301.839844 106.492188 303.351562 112.441406 299.265625 C 118.386719 295.183594 119.898438 287.050781 115.8125 281.105469 Z M 115.8125 281.105469 "/>
    <path style=" stroke:none;fill-rule:nonzero;fill:rgb(0%,0%,0%);fill-opacity:1;" d="M 132.808594 312.835938 C 128.386719 306.398438 119.582031 304.761719 113.140625 309.183594 C 106.703125 313.605469 105.066406 322.410156 109.488281 328.847656 C 113.910156 335.289062 122.714844 336.925781 129.152344 332.503906 C 135.59375 328.082031 137.230469 319.277344 132.808594 312.835938 Z M 132.808594 312.835938 "/>
    <path style=" stroke:none;fill-rule:nonzero;fill:rgb(0%,0%,0%);fill-opacity:1;" d="M 162.34375 342.949219 C 156.878906 334.984375 145.988281 332.964844 138.027344 338.429688 C 130.066406 343.898438 128.042969 354.785156 133.511719 362.75 C 138.976562 370.710938 149.867188 372.734375 157.828125 367.265625 C 165.792969 361.796875 167.8125 350.910156 162.34375 342.949219 Z M 162.34375 342.949219 "/>
  </g>
</svg>