<?xml version="1.0" encoding="UTF-8" standalone="yes"?>
<svg xmlns="http://www.w3.org/2000/svg" xmlns:xlink="http://www.w3.org/1999/xlink" width="512px" height="512px" viewBox="0 0 384 384" version="1.1">
  <g id="surface1">
    <path style=" stroke:none;fill-rule:nonzero;fill:rgb(0%,0%,0%);fill-opacity:1;" d="M 330.390625 63.628906 L 320.621094 53.859375 C 290.558594 41.277344 260.507812 28.667969 230.433594 16.109375 L 205.636719 5.726562 L 198.769531 2.882812 L 191.832031 0.0078125 L 184.890625 2.882812 L 178.027344 5.726562 L 153.226562 16.109375 C 123.15625 28.671875 93.101562 41.277344 63.042969 53.859375 L 53.269531 63.632812 L 0 191.828125 L 53.269531 320.027344 L 63.042969 329.800781 C 105.964844 347.765625 148.851562 365.832031 191.832031 383.65625 C 234.8125 365.832031 277.699219 347.765625 320.621094 329.800781 L 330.390625 320.027344 L 383.660156 191.828125 Z M 272.136719 272.136719 L 191.832031 305.402344 L 111.523438 272.136719 L 78.261719 191.832031 L 111.523438 111.527344 L 191.832031 78.257812 L 272.136719 111.523438 L 305.402344 191.828125 Z M 272.136719 272.136719 "/>
    <path style=" stroke:none;fill-rule:nonzero;fill:rgb(0%,0%,0%);fill-opacity:1;" d="M 191.832031 111.523438 L 135.046875 135.046875 L 111.523438 191.832031 L 135.046875 248.613281 L 191.832031 272.136719 L 248.617188 248.613281 L 272.136719 191.832031 L 248.617188 135.046875 Z M 191.832031 111.523438 "/>
  </g>
</svg>