<?xml version="1.0" encoding="UTF-8" standalone="yes"?>
<svg xmlns="http://www.w3.org/2000/svg" xmlns:xlink="http://www.w3.org/1999/xlink" width="512px" height="512px" viewBox="0 0 384 384" version="1.1">
  <g id="surface1">
    <path style=" stroke:none;fill-rule:nonzero;fill:rgb(0%,0%,0%);fill-opacity:1;" d="M 253.140625 75.460938 L 250.410156 96.410156 L 266.085938 109.546875 L 294.058594 99.738281 L 275.300781 84.171875 L 265.902344 66.300781 L 215.75 18.367188 L 229.128906 52.386719 Z M 253.140625 75.460938 "/>
    <path style=" stroke:none;fill-rule:nonzero;fill:rgb(0%,0%,0%);fill-opacity:1;" d="M 216.855469 86.371094 L 213.753906 104.96875 L 178.390625 130.355469 L 181.875 171.691406 L 208.632812 239.835938 L 223.792969 212.40625 L 218.875 204.804688 L 233.46875 169.496094 L 233.46875 151.453125 L 261.226562 113.566406 L 243.816406 98.980469 L 246.585938 77.765625 L 223.851562 55.921875 L 204.632812 7.496094 L 203.277344 6.757812 L 203.460938 51.734375 Z M 216.855469 86.371094 "/>
    <path style=" stroke:none;fill-rule:nonzero;fill:rgb(0%,0%,0%);fill-opacity:1;" d="M 287.445312 208.613281 L 290.195312 203.796875 L 290.195312 167.363281 L 296.496094 105.460938 L 267.378906 115.664062 L 239.671875 153.480469 L 239.671875 170.726562 L 225.851562 204.167969 L 229.167969 209.292969 L 282.859375 213.0625 Z M 201.277344 294.78125 L 209.761719 298.902344 L 216.175781 291.800781 L 234.96875 289.046875 L 242.070312 279.421875 L 258.113281 278.964844 L 259.03125 274.152344 L 274.839844 271.175781 L 279.597656 219.050781 L 229.164062 215.511719 L 210.980469 248.40625 L 193.269531 296.246094 L 195.09375 305.089844 Z M 158.171875 220.042969 L 111.132812 240.714844 L 112.363281 270.332031 L 132.300781 280.339844 L 137.113281 288.359375 L 147.195312 283.089844 L 153.15625 284.921875 L 154.988281 280.113281 L 159.113281 278.507812 L 171.949219 283.550781 L 176.757812 295.46875 L 187.074219 290.652344 L 188.726562 290.652344 L 204.835938 247.140625 L 178.464844 179.976562 Z M 158.171875 220.042969 "/>
    <path style=" stroke:none;fill-rule:nonzero;fill:rgb(0%,0%,0%);fill-opacity:1;" d="M 103.65625 222.820312 L 107.589844 235.496094 L 153.640625 215.257812 L 175.65625 171.785156 L 172.238281 131.167969 L 85.078125 102.554688 L 105.261719 207.464844 Z M 208.054688 101.421875 L 210.457031 87.023438 L 197.265625 52.90625 L 197.046875 0.0351562 L 193.03125 -0.160156 L 188.21875 2.132812 L 86.992188 96.652344 L 174.628906 125.425781 Z M 302.5625 264.761719 L 284.910156 256.394531 L 283.710938 269.554688 L 289.046875 272.085938 L 266.671875 287.40625 L 241.796875 307.292969 L 215.507812 314.09375 L 194.183594 325.304688 L 167.53125 315.449219 L 119.851562 288.316406 L 99.78125 271.957031 L 103.679688 270.515625 L 103.136719 257.488281 L 86.445312 263.65625 L 73.996094 287.203125 L 76.113281 328.515625 L 101.847656 339.582031 L 105.851562 342.695312 L 158.847656 368.601562 L 163.277344 369.269531 L 188.550781 383.179688 L 201.765625 383.78125 L 219.179688 374.578125 L 273.824219 348.746094 L 314.640625 326.355469 L 317.867188 290.097656 Z M 194.28125 358.738281 L 194.28125 371.019531 L 192.003906 370.914062 L 167.320312 357.328125 L 162.582031 356.617188 L 112.460938 332.113281 L 108.210938 328.8125 L 88.113281 320.167969 L 86.5625 289.980469 L 94.246094 275.449219 L 116.332031 293.453125 L 164.683594 320.964844 L 191.789062 331.03125 L 197.09375 352.464844 Z M 302.871094 318.660156 L 268.355469 337.605469 L 213.757812 363.417969 L 200.488281 370.429688 L 200.488281 360.066406 L 203.632812 353.054688 L 198 330.308594 L 217.761719 319.921875 L 244.636719 312.96875 L 270.273438 292.460938 L 294.699219 275.742188 L 305.152344 293.042969 Z M 302.871094 318.660156 "/>
  </g>
</svg>