<?xml version="1.0" encoding="UTF-8" standalone="yes"?>
<svg xmlns="http://www.w3.org/2000/svg" xmlns:xlink="http://www.w3.org/1999/xlink" width="512px" height="512px" viewBox="0 0 384 384" version="1.1">
  <g id="surface1">
    <path style=" stroke:none;fill-rule:nonzero;fill:rgb(0%,0%,0%);fill-opacity:1;" d="M 315.570312 106.101562 L 221.632812 12.167969 C 205.40625 -4.058594 178.851562 -4.058594 162.625 12.167969 L 68.882812 105.914062 C 63.472656 111.324219 63.472656 120.164062 68.882812 125.574219 L 97.316406 154.007812 L 116.25 171.523438 C 121.832031 176.71875 130.480469 176.71875 136.0625 171.523438 L 173.921875 136.5 C 184.324219 126.871094 200.316406 126.871094 210.714844 136.5 L 248.578125 171.523438 C 254.160156 176.71875 262.804688 176.71875 268.386719 171.523438 L 287.324219 154.015625 L 315.570312 125.773438 C 320.980469 120.351562 320.980469 111.515625 315.570312 106.101562 Z M 315.570312 106.101562 "/>
    <path style=" stroke:none;fill-rule:nonzero;fill:rgb(0%,0%,0%);fill-opacity:1;" d="M 15.421875 224.820312 L 162.625 372.03125 C 178.84375 388.246094 205.394531 388.246094 221.625 372.03125 L 368.832031 224.8125 C 394.347656 199.296875 376.371094 191.734375 357.652344 174.007812 L 334.558594 152.125 C 329.007812 146.871094 320.363281 146.929688 314.742188 152.125 L 276.886719 187.148438 C 266.480469 196.777344 250.496094 196.777344 240.089844 187.148438 L 202.226562 152.125 C 196.644531 146.929688 188 146.929688 182.417969 152.125 L 144.5625 187.148438 C 134.15625 196.777344 118.164062 196.777344 107.761719 187.148438 L 69.90625 152.125 C 64.320312 146.929688 55.671875 146.929688 50.085938 152.125 L 28.882812 171.742188 C 9.308594 189.851562 -11.238281 198.164062 15.421875 224.820312 Z M 15.421875 224.820312 "/>
  </g>
</svg>