<?xml version="1.0" encoding="UTF-8" standalone="yes"?>
<svg xmlns="http://www.w3.org/2000/svg" xmlns:xlink="http://www.w3.org/1999/xlink" width="512px" height="512px" viewBox="0 0 384 384" version="1.1">
  <g id="surface1">
    <path style=" stroke:none;fill-rule:nonzero;fill:rgb(0%,0%,0%);fill-opacity:1;" d="M 331.9375 236.007812 C 319.097656 228.96875 305.128906 225.707031 291.371094 225.8125 L 291.488281 225.746094 C 272.613281 225.964844 257.128906 211.285156 256.90625 192.964844 C 256.691406 174.886719 271.398438 160.035156 289.902344 159.414062 L 289.902344 159.40625 L 289.871094 159.390625 C 303.871094 159.324219 318.03125 155.761719 330.9375 148.316406 C 369.523438 126.046875 382.207031 77.628906 359.269531 40.167969 C 336.328125 2.710938 286.449219 -9.601562 247.863281 12.667969 C 209.277344 34.933594 196.59375 83.355469 219.535156 120.8125 C 229.089844 136.421875 223.808594 156.59375 207.730469 165.875 C 191.882812 175.019531 171.472656 170.160156 161.738281 155.078125 L 161.730469 155.082031 L 161.730469 155.121094 C 154.714844 143.363281 144.492188 133.207031 131.429688 126.039062 C 92.347656 104.605469 42.757812 117.980469 20.675781 155.925781 C -1.402344 193.863281 12.382812 242 51.464844 263.433594 C 90.550781 284.871094 140.132812 271.492188 162.214844 233.546875 C 162.347656 233.320312 162.46875 233.082031 162.597656 232.851562 L 162.597656 232.910156 L 162.605469 232.910156 C 171.984375 217.597656 192.304688 212.289062 208.359375 221.097656 C 224.648438 230.03125 230.386719 250.082031 221.1875 265.890625 C 199.101562 303.835938 212.890625 351.96875 251.972656 373.402344 C 291.058594 394.839844 340.644531 381.460938 362.722656 343.515625 C 384.800781 305.574219 371.019531 257.445312 331.9375 236.007812 Z M 331.9375 236.007812 "/>
  </g>
</svg>