<svg viewBox="0 0 438 512" xmlns="http://www.w3.org/2000/svg">
  <path d="M184.753 73.788L311.529 0l126.306 73.224-126.494 73.6z"/>
  <path d="M437.835 73.224v148.329l-126.494 73.882V146.824zm-253.082.564v54.777l81.506 47.247v92.8l45.082 26.823V146.824z"/>
  <path d="M126.306 109.459l127.341 73.882-126.87 73.883L0 183.34zM0 183.341v148.047l126.776 73.318V257.224z"/>
  <path d="M126.776 257.224l126.871-73.883v51.2l-82.918 48.377v95.717l-43.953 26.07z"/>
  <path d="M184 290.447l47.624-27.294 79.717 47.059 80.188-47.06 46.306 27.483-126.87 74.165z"/>
  <path d="M184 290.447v147.577L310.965 512V364.8zM310.965 364.8l126.87-74.165V438.4L310.965 512z"/>
</svg>
